<svg version="1" xmlns="http://www.w3.org/2000/svg" width="933.333" height="933.333" viewBox="0 0 700.000000 700.000000"><path d="M347.9 43.4c-.2.2-6.5.6-13.9 1-7.4.3-14.4.8-15.5 1-1.1.2-4.7.7-8 1-11.3 1.3-33.7 6.1-47.5 10.3-48.2 14.5-92.8 41.8-129.1 79-28.3 28.8-48.6 59.3-64.8 97.1-9.8 22.9-18.8 54.8-21.7 77.2-.3 2.5-.7 5.6-1 7-.4 2.5-.8 6.9-1.9 18.8-.7 7.6-.7 34.1 0 43.7.4 6.6 2.1 22 3.1 27.5.8 5.2 3 17 3.9 21 .3 1.4.7 3.4.9 4.5 1 4.8 7.8 26.8 11.1 35.9C88 535.9 137 594.5 200 631.3c8.4 4.9 34.1 17.7 35.5 17.7.3 0 4.7 1.6 9.8 3.6 10.5 4.1 17.6 4.3 22.5.7 6-4.4 6.3-6 6.1-37.6l-.1-28.9-2.3.6c-13.8 3.5-35.4 4-49.4 1.1-8.6-1.7-21.9-7.7-28.6-12.8-11.5-8.8-17.7-17.9-26-37.7-1.5-3.6-3.2-7.2-3.9-8-.6-.8-2-3.1-3-5-4.7-8.8-14.8-19.9-22.9-25.3-7.4-4.9-12.7-10.7-12.7-13.7 0-2.4.7-3.1 4.4-4.5 11.9-4.6 30.8 2.3 44.1 16 7.4 7.6 7.9 8.2 13.8 17.8 15 24.1 37.5 34.7 64 30.1 6.8-1.1 18.4-4.6 21.7-6.4.8-.4 2.2-4.4 3.2-8.9 2.2-10.4 6-19 12-26.9 2.7-3.5 4.8-6.5 4.8-6.6 0-.2-2.6-.7-5.7-1.1-18.5-2.2-48.5-10.4-59.2-16.1-2.5-1.3-4.9-2.4-5.2-2.4-1.2 0-14.1-8.3-19.9-12.7-12.2-9.3-26.7-27.5-32-40.3-1.3-3-2.7-6-3.1-6.5-2.4-3.3-9.3-28.3-10.4-37.6-.3-2.4-.7-6-1-7.9-.2-1.9-.7-5.4-1-7.8-.9-6.2-.9-32.7 0-39.1 1.2-9.7 2.2-14.1 5-23.1 1.3-4.1 3.9-10.9 5.8-15 3.4-7.4 13.6-23.4 17.6-27.6l2-2.2-2.6-8.8c-2.3-7.9-2.6-10.8-2.7-25.9-.1-13 .3-19 1.7-25.4 2.5-11.5 5.7-21.4 7.5-22.8 3.1-2.5 25.8.9 34.6 5.3 1.6.8 3.4 1.4 4 1.4 2 0 25.3 12.4 34.9 18.7l9.8 6.3 8.2-1.9c4.5-1.1 9.6-2.2 11.2-2.6 1.7-.3 4.1-.7 5.5-1 10.1-1.9 13.7-2.4 30.5-4.1 8.4-.8 32.4-.8 42 0 7.7.6 9.4.8 19.5 2.1 6.4.8 18.1 3.1 28 5.4 4.6 1.1 8.9 1.7 9.5 1.3.5-.3 4.6-2.9 9-5.7 22.4-14.5 46.6-24.4 62.9-26 10.6-1 10.9-.8 14.4 10.8 3.2 10.5 3.9 13.5 5.1 24.7.8 6.8.6 24.7-.3 29-.3 1.4-.8 3.8-1.2 5.5-.3 1.6-1.3 5.3-2.1 8.2l-1.6 5.1 4.1 5.4c2.3 2.9 4.6 5.8 5.1 6.4.5.6 3 4.7 5.5 9 7.6 13.2 11.2 23.7 15.4 44.9.6 2.7.9 13.5.7 24-.3 18.6-.7 23.9-2.5 34-.5 2.7-1.2 6.1-1.4 7.5-2.7 15.3-10.5 35.6-18.5 48-15 23.3-36.5 39.3-66.1 49.3-5.8 2-11.6 3.8-13 4.1-1.4.3-5.4 1.2-9 2-3.6.8-8.1 1.7-10 2-1.9.3-4.4.7-5.5 1-1.1.2-4.4.7-7.2 1.1-5.3.7-6.5 1.7-3.9 3.2 2 1.1 7 8.1 10 14.1 2.3 4.4 5.7 15.2 7.4 23.1.3 1.4.6 25.8.7 54.1.1 28.3.5 53.1.9 55.1.6 3.5 4.1 7.6 8.1 9.7 5.4 2.7 18.7-.8 39-10.2 3.9-1.8 9.3-4.4 12-5.7 7.4-3.4 24.8-13.7 34.5-20.4 25.8-17.7 52.1-42.7 71-67.4 12.5-16.5 27.2-40.5 34.2-55.9 1.7-3.7 3.9-8.7 5-11.1 4.2-9.3 12-31.2 13.3-37.2.2-.9 1.2-4.7 2.3-8.5 1.1-3.8 2.3-8.7 2.8-10.9.9-4.7.8-4.6 2.8-15 3.4-18 4.5-30.8 4.6-53.5 0-15.1-.5-26.4-1.5-34.5-2-15.7-2.6-20.1-4.4-29-1.2-5.5-2.8-12.7-3.6-16-.9-3.3-2-7.6-2.5-9.5-4.3-17.9-16.6-47.4-28-67.5-26.3-46.4-58.7-81.2-102.8-110.3-5.1-3.4-9.5-6.2-9.8-6.2-.2 0-2.2-1.1-4.4-2.5-13.5-8.5-51.8-24.8-65.9-28-.9-.2-7-1.7-13.6-3.4-6.6-1.6-14-3.3-16.5-3.6-2.4-.4-4.7-.8-5-1-.3-.1-3.6-.6-7.5-1-3.8-.4-7.2-.8-7.6-1-.3-.2-8-.7-17-1.1-9-.3-16.7-.8-17-1-.3-.2-.8-.2-1 0z"/></svg>